<?xml version="1.0" encoding="utf-8"?>
<!-- Generator: Adobe Illustrator 22.1.0, SVG Export Plug-In . SVG Version: 6.00 Build 0)  -->
<svg version="1.1" id="Design" xmlns="http://www.w3.org/2000/svg" xmlns:xlink="http://www.w3.org/1999/xlink" x="0px" y="0px"
	 viewBox="0 0 300 300" style="enable-background:new 0 0 300 300;" xml:space="preserve">
<style type="text/css">
	.st0{fill:#928B86;}
	.st1{fill:#FFFFFF;}
	.st2{fill:url(#SVGID_1_);}
	.st3{fill:url(#SVGID_2_);}
	.st4{fill:url(#SVGID_3_);}
	.st5{fill:url(#SVGID_4_);}
	.st6{fill:url(#SVGID_5_);}
	.st7{stroke:#000000;stroke-width:1.6324;}
	.st8{fill:none;stroke:#000000;stroke-width:4.2484;stroke-miterlimit:10;}
	.st9{fill:#FF4D00;}
	.st10{clip-path:url(#SVGID_7_);}
	.st11{fill:url(#SVGID_8_);}
	.st12{fill:url(#SVGID_9_);}
	.st13{fill:url(#SVGID_10_);}
	.st14{fill:url(#SVGID_11_);}
	.st15{fill:url(#SVGID_12_);}
	.st16{fill:none;stroke:#000000;stroke-width:3.0278;stroke-linejoin:round;stroke-miterlimit:10;}
	.st17{fill:#FFFFFF;stroke:#000000;stroke-width:3.0278;stroke-linejoin:round;stroke-miterlimit:10;}
	.st18{fill:#FF4D00;stroke:#000000;stroke-width:3.0278;stroke-linejoin:round;stroke-miterlimit:10;}
	.st19{fill:#FFFFFF;stroke:#000000;stroke-width:3.9318;stroke-linecap:round;stroke-linejoin:round;}
	.st20{fill:none;stroke:#000000;stroke-width:3.9318;stroke-linecap:round;stroke-linejoin:round;}
	.st21{clip-path:url(#SVGID_14_);fill:#FF4D00;stroke:#000000;stroke-width:3.9692;stroke-linecap:round;stroke-linejoin:round;}
	.st22{clip-path:url(#SVGID_16_);fill:#FF4D00;stroke:#000000;stroke-width:3.9692;stroke-linecap:round;stroke-linejoin:round;}
	.st23{fill:none;stroke:#000000;stroke-width:2.3003;stroke-miterlimit:10;}
	.st24{opacity:0.5;}
	.st25{fill:#101820;}
	
		.st26{fill:none;stroke:#FFB71B;stroke-width:0.9076;stroke-linecap:round;stroke-linejoin:round;stroke-miterlimit:10;stroke-dasharray:2.7229,1.3615;}
	.st27{fill:none;stroke:#000000;stroke-width:3.6232;stroke-linecap:round;stroke-miterlimit:10;stroke-dasharray:10.8695,14.4927;}
	
		.st28{fill:none;stroke:#231F20;stroke-width:0.9076;stroke-linecap:round;stroke-linejoin:round;stroke-miterlimit:10;stroke-dasharray:2.7229,1.3615;}
	.st29{fill:#FFFFFF;stroke:#000000;stroke-width:3.9244;stroke-linecap:round;stroke-linejoin:round;}
	.st30{fill:none;stroke:#000000;stroke-width:3.9244;stroke-linecap:round;stroke-linejoin:round;}
	.st31{fill:#FFFFFF;stroke:#000000;stroke-width:2.7267;stroke-miterlimit:10;}
	.st32{fill:none;stroke:#FF4D00;stroke-width:3.8634;stroke-linecap:round;stroke-linejoin:round;}
	.st33{fill:none;stroke:#000000;stroke-width:3.8634;stroke-linecap:round;stroke-linejoin:round;}
	.st34{fill:#FFFFFF;stroke:#FF4D00;stroke-width:3.8634;stroke-linecap:round;stroke-linejoin:round;}
	.st35{fill:#FF4D00;stroke:#000000;stroke-width:3.7719;stroke-linecap:round;stroke-linejoin:round;}
	.st36{fill:#FFFFFF;stroke:#000000;stroke-width:3.7719;stroke-linecap:round;stroke-linejoin:round;}
	.st37{fill:none;stroke:#000000;stroke-width:3.7719;stroke-miterlimit:10;}
	.st38{fill:none;stroke:#000000;stroke-width:3.7719;stroke-miterlimit:10;stroke-dasharray:2.4117,2.4117;}
	.st39{fill:none;stroke:#000000;stroke-width:3.7719;stroke-linecap:round;stroke-linejoin:round;}
	.st40{fill:none;stroke:#B23B16;stroke-width:3.6232;stroke-linecap:round;stroke-miterlimit:10;stroke-dasharray:10.8695,14.4927;}
	.st41{fill:#AB7744;stroke:#000000;stroke-width:3.6232;stroke-miterlimit:10;}
	.st42{fill:#835D32;}
	.st43{fill:#FFFFFF;stroke:#000000;stroke-width:3.8988;stroke-linecap:round;stroke-linejoin:round;}
	.st44{fill:#FF4D00;stroke:#000000;stroke-width:3.8988;stroke-linecap:round;stroke-linejoin:round;}
	.st45{fill:#FFFFFF;stroke:#000000;stroke-width:3.8997;stroke-linecap:round;stroke-linejoin:round;}
	.st46{opacity:0.4;}
	.st47{fill:#FFFFFF;stroke:#000000;stroke-width:3.6668;stroke-linecap:round;stroke-linejoin:round;}
	.st48{fill:none;stroke:#000000;stroke-width:3.7719;stroke-linecap:round;stroke-linejoin:round;stroke-dasharray:9.0482,9.0482;}
	.st49{fill:#3CB44A;}
</style>
<symbol  id="Social_Media_Icons" viewBox="-94.8 -16.8 189.7 33.6">
	<rect x="-94.8" y="-16.8" class="st0" width="33.6" height="33.6"/>
	<rect x="-56.9" y="-16.8" class="st0" width="33.6" height="33.6"/>
	<rect x="-17.8" y="-16.8" class="st0" width="33.6" height="33.6"/>
	<rect x="21.4" y="-16.8" class="st0" width="33.6" height="33.6"/>
	<rect x="61.3" y="-16.8" class="st0" width="33.6" height="33.6"/>
	<path class="st1" d="M72.7,7c0-0.6-0.2-1.1-0.6-1.5c-0.4-0.4-0.9-0.6-1.6-0.6h0c-0.7,0-1.2,0.2-1.6,0.6c-0.4,0.4-0.6,0.9-0.6,1.5
		c0,0.6,0.2,1.1,0.6,1.5C69.3,8.8,69.8,9,70.5,9c0.7,0,1.2-0.2,1.6-0.6C72.5,8.1,72.7,7.6,72.7,7z M72.4,3.3V-8.4h-3.9V3.3H72.4z
		 M86.5-1.7v-6.8h-3.9v6.3c0,0.8-0.2,1.5-0.5,2c-0.3,0.5-0.8,0.7-1.5,0.7c-0.5,0-0.9-0.1-1.3-0.4c-0.3-0.3-0.6-0.6-0.8-1
		c-0.1-0.2-0.1-0.6-0.1-1v-6.6h-3.9c0,3.2,0,5.7,0,7.7s0,3.1,0,3.5l0,0.6h3.9V1.6h0c0.2,0.3,0.3,0.5,0.5,0.7
		c0.2,0.2,0.4,0.4,0.7,0.6c0.3,0.2,0.6,0.4,1,0.5c0.4,0.1,0.9,0.2,1.4,0.2c1.4,0,2.4-0.4,3.3-1.3C86.1,1.4,86.5,0.1,86.5-1.7z"/>
	<path class="st1" d="M45.6,4.3C46.4,3,46.8,1.6,46.8,0c0-1.6-0.4-3-1.2-4.3c-0.8-1.3-1.8-2.4-3.1-3.1c-1.3-0.8-2.8-1.2-4.3-1.2
		c-0.8,0-1.6,0.1-2.4,0.4c0.4,0.7,0.7,1.3,0.9,1.8c0.1,0.3,0.3,1,0.6,2.4c0.1-0.3,0.4-0.5,0.8-0.8c0.4-0.2,0.8-0.3,1.3-0.3
		c0.9,0,1.7,0.3,2.4,0.8s1.3,1.2,1.6,2.1c0.4,0.9,0.6,1.9,0.6,3c0,0.9-0.2,1.7-0.7,2.4c-0.4,0.7-1.1,1.4-1.9,1.8
		c-0.8,0.5-1.8,0.7-2.9,0.7c-0.8,0-1.5-0.1-2.2-0.3c-0.7-0.2-1.3-0.5-1.7-0.9c-0.5-0.4-0.9-0.8-1.2-1.2c-0.3-0.5-0.6-1-0.8-1.5
		c-0.2-0.5-0.2-1-0.2-1.5c0-0.8,0.1-1.5,0.4-2.1c0.3-0.6,0.7-1,1.3-1.2c0.2-0.1,0.4,0,0.4,0.2c0,0.1,0,0.2,0.1,0.3
		c0,0.2,0.1,0.3,0.1,0.3c0,0.2,0,0.3-0.1,0.5c-0.4,0.5-0.6,1-0.6,1.7c0,1.1,0.4,2.1,1.2,2.9C36,3.8,37,4.3,38.2,4.3
		c1.1,0,2-0.3,2.6-0.9c0.6-0.6,0.9-1.4,0.9-2.4c0-1.3-0.3-2.4-0.8-3.2c-0.5-0.9-1.2-1.3-2-1.3c-0.5,0-0.8,0.2-1.1,0.5
		c-0.3,0.3-0.4,0.7-0.3,1.2c0.1,0.3,0.2,0.6,0.3,1c0.1,0.4,0.3,0.8,0.3,1.2c0.1,0.3,0.1,0.6,0.1,0.8c0,0.4-0.1,0.7-0.3,0.9
		c-0.2,0.2-0.5,0.4-0.9,0.4c-0.5,0-0.9-0.2-1.2-0.6c-0.3-0.4-0.5-1-0.5-1.6c0-0.5,0.1-1,0.3-1.4l-1.1-4.7c-0.1-0.5-0.2-1.2-0.1-2
		c-1.5,0.7-2.8,1.7-3.7,3.2s-1.4,3-1.4,4.7c0,1.6,0.4,3,1.2,4.3c0.8,1.3,1.8,2.4,3.1,3.1c1.3,0.8,2.8,1.2,4.3,1.2
		c1.6,0,3-0.4,4.3-1.2C43.8,6.7,44.8,5.6,45.6,4.3z"/>
	<path class="st1" d="M-30.1,6c-0.6-0.8-1.2-1.5-2-2.1c0-0.1,0-0.3,0-0.5c0-1.1-0.2-2.1-0.5-3.2c-0.3-1.1-0.8-2.1-1.4-3.1
		c-0.6-1-1.4-1.8-2.3-2.6c-0.9-0.8-1.9-1.4-3.2-1.8c-1.2-0.4-2.6-0.7-4-0.7c-2.2,0-4.3,0.6-6.1,1.8c0.3,0,0.6,0,1,0
		c1.9,0,3.5,0.6,5,1.7c-0.9,0-1.6,0.3-2.3,0.8c-0.7,0.5-1.2,1.2-1.4,2c0.3,0,0.5-0.1,0.8-0.1c0.4,0,0.7,0,1.1,0.1
		c-0.9,0.2-1.7,0.6-2.3,1.4c-0.6,0.7-0.9,1.6-0.9,2.5v0.1c0.6-0.3,1.2-0.5,1.8-0.5c-0.5,0.4-1,0.8-1.3,1.4c-0.3,0.6-0.5,1.2-0.5,1.9
		c0,0.7,0.2,1.4,0.5,2c1-1.2,2.2-2.2,3.6-2.9c1.4-0.7,3-1.1,4.6-1.2c-0.1,0.3-0.1,0.6-0.1,0.9c0,1.1,0.4,2,1.2,2.8
		c0.8,0.8,1.7,1.2,2.8,1.2c1.2,0,2.1-0.4,2.9-1.3c0.9,0.2,1.7,0.5,2.5,1c-0.3-0.9-0.9-1.7-1.8-2.2C-31.7,5.5-30.9,5.7-30.1,6z"/>
	<g>
		<g>
			<g>
				<path class="st1" d="M-1,7C1.3,7,1.6,7,2.5,7c0.8,0,1.3-0.2,1.6-0.3c0.4-0.2,0.7-0.3,1-0.6c0.3-0.3,0.5-0.6,0.6-1
					C5.8,4.7,6,4.3,6,3.4c0-0.9,0.1-1.2,0.1-3.5s0-2.6-0.1-3.5c0-0.8-0.2-1.3-0.3-1.6c-0.2-0.4-0.3-0.7-0.6-1
					c-0.3-0.3-0.6-0.5-1-0.6C3.8-6.9,3.3-7,2.5-7C1.6-7.1,1.3-7.1-1-7.1s-2.6,0-3.5,0.1c-0.8,0-1.3,0.2-1.6,0.3
					c-0.4,0.2-0.7,0.3-1,0.6c-0.3,0.3-0.5,0.6-0.6,1C-7.8-4.8-8-4.3-8-3.5c0,0.9-0.1,1.2-0.1,3.5s0,2.6,0.1,3.5
					C-8,4.3-7.8,4.7-7.7,5c0.2,0.4,0.3,0.7,0.6,1c0.3,0.3,0.6,0.5,1,0.6C-5.8,6.8-5.3,6.9-4.5,7C-3.6,7-3.3,7-1,7 M-1,8.6
					c-2.3,0-2.6,0-3.6-0.1c-0.9,0-1.5-0.2-2.1-0.4c-0.6-0.2-1-0.5-1.5-1c-0.5-0.5-0.8-1-1-1.5C-9.4,5-9.5,4.4-9.6,3.5
					c0-0.9-0.1-1.2-0.1-3.5c0-2.3,0-2.6,0.1-3.5c0-0.9,0.2-1.5,0.4-2.1c0.2-0.6,0.5-1,1-1.5c0.5-0.5,1-0.8,1.5-1
					c0.5-0.2,1.2-0.4,2.1-0.4c0.9,0,1.2-0.1,3.6-0.1s2.6,0,3.6,0.1c0.9,0,1.5,0.2,2.1,0.4c0.6,0.2,1,0.5,1.5,1c0.5,0.5,0.8,1,1,1.5
					c0.2,0.5,0.4,1.2,0.4,2.1c0,0.9,0.1,1.2,0.1,3.5s0,2.6-0.1,3.5c0,0.9-0.2,1.5-0.4,2.1c-0.2,0.6-0.5,1-1,1.5
					c-0.5,0.5-1,0.8-1.5,1C4.1,8.3,3.5,8.5,2.5,8.5C1.6,8.6,1.3,8.6-1,8.6L-1,8.6L-1,8.6z"/>
			</g>
		</g>
		<g>
			<g>
				<path class="st1" d="M-1,4.4c-2.4,0-4.4-2-4.4-4.4s2-4.4,4.4-4.4s4.4,2,4.4,4.4S1.4,4.4-1,4.4L-1,4.4z M-1-2.9
					c-1.6,0-2.9,1.3-2.9,2.9c0,1.6,1.3,2.9,2.9,2.9c1.6,0,2.9-1.3,2.9-2.9C1.9-1.6,0.6-2.9-1-2.9L-1-2.9z"/>
			</g>
		</g>
		<g>
			<g>
				<path class="st1" d="M4.6,4.6c0-0.6-0.5-1-1-1s-1,0.5-1,1s0.5,1,1,1S4.6,5.1,4.6,4.6L4.6,4.6z"/>
			</g>
		</g>
	</g>
	<path class="st1" d="M-74.3,10v-3h-1.8c-0.7,0-1.1-0.1-1.3-0.4c-0.2-0.3-0.3-0.7-0.3-1.2V3.1h3.4l-0.4-3.4h-2.9V-9h-3.5v8.7h-2.9
		v3.4h2.9v2.5c0,1.4,0.4,2.5,1.2,3.3c0.8,0.8,1.9,1.2,3.2,1.2C-75.8,10.1-74.9,10.1-74.3,10z"/>
</symbol>
<g>
	<g>
		<path class="st1" d="M150,237.5c25.3,0,32.4-4.1,50.9-7.4c-0.5-6.9-4.6-71.8-3.8-86.4c0.5-20.7,1.5-45.7,11.3-58.1
			c-5.4-4.2-27.9-10.3-36.1-14.3c-1.9-0.9-9.5-0.3-22.3-0.3c-12.8,0-20.4-0.6-22.3,0.3c-8.2,3.9-30.7,10.1-36.1,14.3
			c9.8,12.5,10.8,37.4,11.3,58.1c0.9,14.6-3.3,79.5-3.8,86.4C117.6,233.4,124.7,237.5,150,237.5z"/>
		<g>
			<path class="st16" d="M150,237.5c25.3,0,32.4-4.1,50.9-7.4c-0.5-6.9-4.6-71.8-3.8-86.4c0.5-20.7,1.5-45.7,11.3-58.1
				c-5.4-4.2-27.9-10.3-36.1-14.3c-1.9-0.9-9.5-0.3-22.3-0.3c-12.8,0-20.4-0.6-22.3,0.3c-8.2,3.9-30.7,10.1-36.1,14.3
				c9.8,12.5,10.8,37.4,11.3,58.1c0.9,14.6-3.3,79.5-3.8,86.4C117.6,233.4,124.7,237.5,150,237.5z"/>
			<path class="st17" d="M103,148.2c-0.2,0.9-7.4,29.3-8.7,73.8c0,0.7-0.7,1.1-1.3,1.1H66.5c-0.8,0-1.4-0.6-1.4-1.4
				c0-65.8,16.9-129.6,26.5-136.1c9.8,12.5,10.8,37.4,11.3,58.1C103,145,103,146.5,103,148.2z"/>
			<path class="st17" d="M197,148.2c0.2,0.9,7.4,29.3,8.7,73.8c0,0.7,0.7,1.1,1.3,1.1h26.6c0.8,0,1.4-0.6,1.4-1.4
				c0-65.8-16.9-129.6-26.5-136.1c-9.8,12.5-10.8,37.4-11.3,58.1C197,145,197,146.5,197,148.2z"/>
			<path class="st17" d="M150,71.1c7.8,0,13.6-0.2,17.5-0.2c2.5,0,4.1,0.2,4.8,0.5c1.1,0.5,2.5,1.1,4,1.7c-0.3-0.4-0.5-0.9-0.7-1.3
				c-1.1-1.9-2.1-3.4-2.9-4.7c-1-1.5-1.7-2.6-2.5-3.5c-1.2-1.5-10.2-1.1-20.2-1.1h0c-10,0-19-0.4-20.2,1.1c-0.8,1-1.5,2-2.5,3.5
				c-0.8,1.2-1.7,2.7-2.9,4.7c-0.2,0.4-0.5,0.8-0.7,1.3c1.5-0.6,2.9-1.2,4-1.7c0.7-0.4,2.4-0.5,4.8-0.5
				C136.4,70.9,142.2,71.1,150,71.1L150,71.1z"/>
			<path class="st17" d="M92,236.4H67.5c-0.6,0-1-0.5-1-1v-12.3H93v12.3C93,235.9,92.6,236.4,92,236.4z"/>
			<path class="st17" d="M154.4,95.6v141.9h-8.7V95.6c1.4,0.1,2.9,0.2,4.4,0.2C151.5,95.8,152.9,95.7,154.4,95.6z"/>
			<path class="st17" d="M156.3,95.3c-2,0.3-4.1,0.5-6.3,0.5c-2.2,0-4.3-0.2-6.3-0.5c2.2-2.4,4.1-4.5,5-5.5h2.6
				C152.2,90.8,154.2,92.9,156.3,95.3z"/>
			<g>
				<circle cx="150" cy="104.8" r="1.5"/>
				<circle cx="150" cy="92.8" r="1.5"/>
				<circle cx="150" cy="125.2" r="1.5"/>
				<circle cx="150" cy="145.6" r="1.5"/>
				<circle cx="150" cy="166" r="1.5"/>
				<circle cx="150" cy="186.3" r="1.5"/>
				<circle cx="150" cy="206.7" r="1.5"/>
			</g>
			<g>
				<polygon class="st17" points="110.8,135 123.5,138.3 136.2,135 136.2,109 110.8,109 110.8,135 				"/>
				<polygon class="st17" points="110.8,117.3 123.5,120.6 136.2,117.3 136.2,109 110.8,109 110.8,117.3 				"/>
				<circle cx="123.5" cy="116.6" r="1.5"/>
			</g>
			<path class="st17" d="M208,236.4h24.5c0.6,0,1-0.5,1-1v-12.3H207v12.3C207,235.9,207.4,236.4,208,236.4z"/>
			<path class="st17" d="M150.8,89.2c0,0,4.2,4.7,8.2,9c15.8-18,17.3-25.1,17.3-25.1c-0.3-0.4-0.5-0.9-0.7-1.3
				c-1.1-1.9-2.1-3.4-2.9-4.7c-1-1.5-1.7-2.6-2.5-3.5c-0.4-0.5-1.4-0.8-3-0.9c2.9,1.2,2.4,4.4,0.3,8.2
				C163.3,78.4,153,88.2,150.8,89.2z"/>
			<g>
				<polygon class="st17" points="189.2,135 176.5,138.3 163.8,135 163.8,109 189.2,109 189.2,135 				"/>
				<polygon class="st17" points="189.2,117.3 176.5,120.6 163.8,117.3 163.8,109 189.2,109 189.2,117.3 				"/>
				<circle cx="176.5" cy="116.6" r="1.5"/>
			</g>
			<path class="st17" d="M149.2,89.2c0,0-4.2,4.7-8.2,9c-15.8-18-17.3-25.1-17.3-25.1c0.3-0.4,0.5-0.9,0.7-1.3
				c1.1-1.9,2.1-3.4,2.9-4.7c1-1.5,1.7-2.6,2.5-3.5c0.4-0.5,1.4-0.8,3-0.9c-2.9,1.2-2.4,4.4-0.3,8.2C136.7,78.4,147,88.2,149.2,89.2
				z"/>
			<path class="st17" d="M126.1,78.3L126.1,78.3L94.8,90.6c-0.9-1.8-2-3.5-3.2-5c4.6-3.6,22.2-8.7,32.1-12.6
				C123.7,73.2,124.1,74.8,126.1,78.3z"/>
			<path class="st17" d="M173.9,78.3L173.9,78.3l31.3,12.3c0.9-1.8,2-3.5,3.2-5c-4.6-3.6-22.2-8.7-32.1-12.6
				C176.3,73.2,175.9,74.8,173.9,78.3z"/>
		</g>
	</g>
</g>
</svg>
