<?xml version="1.0" encoding="utf-8"?>
<!-- Generator: Adobe Illustrator 22.1.0, SVG Export Plug-In . SVG Version: 6.00 Build 0)  -->
<svg version="1.1" id="Design" xmlns="http://www.w3.org/2000/svg" xmlns:xlink="http://www.w3.org/1999/xlink" x="0px" y="0px"
	 viewBox="0 0 300 300" style="enable-background:new 0 0 300 300;" xml:space="preserve">
<style type="text/css">
	.st0{fill:#928B86;}
	.st1{fill:#FFFFFF;}
	.st2{fill:url(#SVGID_1_);}
	.st3{fill:url(#SVGID_2_);}
	.st4{fill:url(#SVGID_3_);}
	.st5{fill:url(#SVGID_4_);}
	.st6{fill:url(#SVGID_5_);}
	.st7{stroke:#000000;stroke-width:1.6324;}
	.st8{fill:none;stroke:#000000;stroke-width:4.2484;stroke-miterlimit:10;}
	.st9{fill:#FF4D00;}
	.st10{clip-path:url(#SVGID_7_);}
	.st11{fill:url(#SVGID_8_);}
	.st12{fill:url(#SVGID_9_);}
	.st13{fill:url(#SVGID_10_);}
	.st14{fill:url(#SVGID_11_);}
	.st15{fill:url(#SVGID_12_);}
	.st16{fill:none;stroke:#000000;stroke-width:3.0278;stroke-linejoin:round;stroke-miterlimit:10;}
	.st17{fill:#FFFFFF;stroke:#000000;stroke-width:3.0278;stroke-linejoin:round;stroke-miterlimit:10;}
	.st18{fill:#FF4D00;stroke:#000000;stroke-width:3.0278;stroke-linejoin:round;stroke-miterlimit:10;}
	.st19{fill:#FFFFFF;stroke:#000000;stroke-width:3.9318;stroke-linecap:round;stroke-linejoin:round;}
	.st20{fill:none;stroke:#000000;stroke-width:3.9318;stroke-linecap:round;stroke-linejoin:round;}
	.st21{clip-path:url(#SVGID_14_);fill:#FF4D00;stroke:#000000;stroke-width:3.9692;stroke-linecap:round;stroke-linejoin:round;}
	.st22{clip-path:url(#SVGID_16_);fill:#FF4D00;stroke:#000000;stroke-width:3.9692;stroke-linecap:round;stroke-linejoin:round;}
	.st23{fill:none;stroke:#000000;stroke-width:2.3003;stroke-miterlimit:10;}
	.st24{opacity:0.5;}
	.st25{fill:#101820;}
	
		.st26{fill:none;stroke:#FFB71B;stroke-width:0.9076;stroke-linecap:round;stroke-linejoin:round;stroke-miterlimit:10;stroke-dasharray:2.7229,1.3615;}
	.st27{fill:none;stroke:#000000;stroke-width:3.6232;stroke-linecap:round;stroke-miterlimit:10;stroke-dasharray:10.8695,14.4927;}
	
		.st28{fill:none;stroke:#231F20;stroke-width:0.9076;stroke-linecap:round;stroke-linejoin:round;stroke-miterlimit:10;stroke-dasharray:2.7229,1.3615;}
	.st29{fill:#FFFFFF;stroke:#000000;stroke-width:3.9244;stroke-linecap:round;stroke-linejoin:round;}
	.st30{fill:none;stroke:#000000;stroke-width:3.9244;stroke-linecap:round;stroke-linejoin:round;}
	.st31{fill:#FFFFFF;stroke:#000000;stroke-width:2.7267;stroke-miterlimit:10;}
	.st32{fill:none;stroke:#FF4D00;stroke-width:3.8634;stroke-linecap:round;stroke-linejoin:round;}
	.st33{fill:none;stroke:#000000;stroke-width:3.8634;stroke-linecap:round;stroke-linejoin:round;}
	.st34{fill:#FFFFFF;stroke:#FF4D00;stroke-width:3.8634;stroke-linecap:round;stroke-linejoin:round;}
	.st35{fill:#FF4D00;stroke:#000000;stroke-width:3.7719;stroke-linecap:round;stroke-linejoin:round;}
	.st36{fill:#FFFFFF;stroke:#000000;stroke-width:3.7719;stroke-linecap:round;stroke-linejoin:round;}
	.st37{fill:none;stroke:#000000;stroke-width:3.7719;stroke-miterlimit:10;}
	.st38{fill:none;stroke:#000000;stroke-width:3.7719;stroke-miterlimit:10;stroke-dasharray:2.4117,2.4117;}
	.st39{fill:none;stroke:#000000;stroke-width:3.7719;stroke-linecap:round;stroke-linejoin:round;}
	.st40{fill:none;stroke:#B23B16;stroke-width:3.6232;stroke-linecap:round;stroke-miterlimit:10;stroke-dasharray:10.8695,14.4927;}
	.st41{fill:#AB7744;stroke:#000000;stroke-width:3.6232;stroke-miterlimit:10;}
	.st42{fill:#835D32;}
	.st43{fill:#FFFFFF;stroke:#000000;stroke-width:3.8988;stroke-linecap:round;stroke-linejoin:round;}
	.st44{fill:#FF4D00;stroke:#000000;stroke-width:3.8988;stroke-linecap:round;stroke-linejoin:round;}
	.st45{fill:#FFFFFF;stroke:#000000;stroke-width:3.8997;stroke-linecap:round;stroke-linejoin:round;}
	.st46{opacity:0.4;}
	.st47{fill:#FFFFFF;stroke:#000000;stroke-width:3.6668;stroke-linecap:round;stroke-linejoin:round;}
	.st48{fill:none;stroke:#000000;stroke-width:3.7719;stroke-linecap:round;stroke-linejoin:round;stroke-dasharray:9.0482,9.0482;}
	.st49{fill:#3CB44A;}
</style>
<symbol  id="Social_Media_Icons" viewBox="-94.8 -16.8 189.7 33.6">
	<rect x="-94.8" y="-16.8" class="st0" width="33.6" height="33.6"/>
	<rect x="-56.9" y="-16.8" class="st0" width="33.6" height="33.6"/>
	<rect x="-17.8" y="-16.8" class="st0" width="33.6" height="33.6"/>
	<rect x="21.4" y="-16.8" class="st0" width="33.6" height="33.6"/>
	<rect x="61.3" y="-16.8" class="st0" width="33.6" height="33.6"/>
	<path class="st1" d="M72.7,7c0-0.6-0.2-1.1-0.6-1.5c-0.4-0.4-0.9-0.6-1.6-0.6h0c-0.7,0-1.2,0.2-1.6,0.6c-0.4,0.4-0.6,0.9-0.6,1.5
		c0,0.6,0.2,1.1,0.6,1.5C69.3,8.8,69.8,9,70.5,9c0.7,0,1.2-0.2,1.6-0.6C72.5,8.1,72.7,7.6,72.7,7z M72.4,3.3V-8.4h-3.9V3.3H72.4z
		 M86.5-1.7v-6.8h-3.9v6.3c0,0.8-0.2,1.5-0.5,2c-0.3,0.5-0.8,0.7-1.5,0.7c-0.5,0-0.9-0.1-1.3-0.4c-0.3-0.3-0.6-0.6-0.8-1
		c-0.1-0.2-0.1-0.6-0.1-1v-6.6h-3.9c0,3.2,0,5.7,0,7.7s0,3.1,0,3.5l0,0.6h3.9V1.6h0c0.2,0.3,0.3,0.5,0.5,0.7
		c0.2,0.2,0.4,0.4,0.7,0.6c0.3,0.2,0.6,0.4,1,0.5c0.4,0.1,0.9,0.2,1.4,0.2c1.4,0,2.4-0.4,3.3-1.3C86.1,1.4,86.5,0.1,86.5-1.7z"/>
	<path class="st1" d="M45.6,4.3C46.4,3,46.8,1.6,46.8,0c0-1.6-0.4-3-1.2-4.3c-0.8-1.3-1.8-2.4-3.1-3.1c-1.3-0.8-2.8-1.2-4.3-1.2
		c-0.8,0-1.6,0.1-2.4,0.4c0.4,0.7,0.7,1.3,0.9,1.8c0.1,0.3,0.3,1,0.6,2.4c0.1-0.3,0.4-0.5,0.8-0.8c0.4-0.2,0.8-0.3,1.3-0.3
		c0.9,0,1.7,0.3,2.4,0.8s1.3,1.2,1.6,2.1c0.4,0.9,0.6,1.9,0.6,3c0,0.9-0.2,1.7-0.7,2.4c-0.4,0.7-1.1,1.4-1.9,1.8
		c-0.8,0.5-1.8,0.7-2.9,0.7c-0.8,0-1.5-0.1-2.2-0.3c-0.7-0.2-1.3-0.5-1.7-0.9c-0.5-0.4-0.9-0.8-1.2-1.2c-0.3-0.5-0.6-1-0.8-1.5
		c-0.2-0.5-0.2-1-0.2-1.5c0-0.8,0.1-1.5,0.4-2.1c0.3-0.6,0.7-1,1.3-1.2c0.2-0.1,0.4,0,0.4,0.2c0,0.1,0,0.2,0.1,0.3
		c0,0.2,0.1,0.3,0.1,0.3c0,0.2,0,0.3-0.1,0.5c-0.4,0.5-0.6,1-0.6,1.7c0,1.1,0.4,2.1,1.2,2.9C36,3.8,37,4.3,38.2,4.3
		c1.1,0,2-0.3,2.6-0.9c0.6-0.6,0.9-1.4,0.9-2.4c0-1.3-0.3-2.4-0.8-3.2c-0.5-0.9-1.2-1.3-2-1.3c-0.5,0-0.8,0.2-1.1,0.5
		c-0.3,0.3-0.4,0.7-0.3,1.2c0.1,0.3,0.2,0.6,0.3,1c0.1,0.4,0.3,0.8,0.3,1.2c0.1,0.3,0.1,0.6,0.1,0.8c0,0.4-0.1,0.7-0.3,0.9
		c-0.2,0.2-0.5,0.4-0.9,0.4c-0.5,0-0.9-0.2-1.2-0.6c-0.3-0.4-0.5-1-0.5-1.6c0-0.5,0.1-1,0.3-1.4l-1.1-4.7c-0.1-0.5-0.2-1.2-0.1-2
		c-1.5,0.7-2.8,1.7-3.7,3.2s-1.4,3-1.4,4.7c0,1.6,0.4,3,1.2,4.3c0.8,1.3,1.8,2.4,3.1,3.1c1.3,0.8,2.8,1.2,4.3,1.2
		c1.6,0,3-0.4,4.3-1.2C43.8,6.7,44.8,5.6,45.6,4.3z"/>
	<path class="st1" d="M-30.1,6c-0.6-0.8-1.2-1.5-2-2.1c0-0.1,0-0.3,0-0.5c0-1.1-0.2-2.1-0.5-3.2c-0.3-1.1-0.8-2.1-1.4-3.1
		c-0.6-1-1.4-1.8-2.3-2.6c-0.9-0.8-1.9-1.4-3.2-1.8c-1.2-0.4-2.6-0.7-4-0.7c-2.2,0-4.3,0.6-6.1,1.8c0.3,0,0.6,0,1,0
		c1.9,0,3.5,0.6,5,1.7c-0.9,0-1.6,0.3-2.3,0.8c-0.7,0.5-1.2,1.2-1.4,2c0.3,0,0.5-0.1,0.8-0.1c0.4,0,0.7,0,1.1,0.1
		c-0.9,0.2-1.7,0.6-2.3,1.4c-0.6,0.7-0.9,1.6-0.9,2.5v0.1c0.6-0.3,1.2-0.5,1.8-0.5c-0.5,0.4-1,0.8-1.3,1.4c-0.3,0.6-0.5,1.2-0.5,1.9
		c0,0.7,0.2,1.4,0.5,2c1-1.2,2.2-2.2,3.6-2.9c1.4-0.7,3-1.1,4.6-1.2c-0.1,0.3-0.1,0.6-0.1,0.9c0,1.1,0.4,2,1.2,2.8
		c0.8,0.8,1.7,1.2,2.8,1.2c1.2,0,2.1-0.4,2.9-1.3c0.9,0.2,1.7,0.5,2.5,1c-0.3-0.9-0.9-1.7-1.8-2.2C-31.7,5.5-30.9,5.7-30.1,6z"/>
	<g>
		<g>
			<g>
				<path class="st1" d="M-1,7C1.3,7,1.6,7,2.5,7c0.8,0,1.3-0.2,1.6-0.3c0.4-0.2,0.7-0.3,1-0.6c0.3-0.3,0.5-0.6,0.6-1
					C5.8,4.7,6,4.3,6,3.4c0-0.9,0.1-1.2,0.1-3.5s0-2.6-0.1-3.5c0-0.8-0.2-1.3-0.3-1.6c-0.2-0.4-0.3-0.7-0.6-1
					c-0.3-0.3-0.6-0.5-1-0.6C3.8-6.9,3.3-7,2.5-7C1.6-7.1,1.3-7.1-1-7.1s-2.6,0-3.5,0.1c-0.8,0-1.3,0.2-1.6,0.3
					c-0.4,0.2-0.7,0.3-1,0.6c-0.3,0.3-0.5,0.6-0.6,1C-7.8-4.8-8-4.3-8-3.5c0,0.9-0.1,1.2-0.1,3.5s0,2.6,0.1,3.5
					C-8,4.3-7.8,4.7-7.7,5c0.2,0.4,0.3,0.7,0.6,1c0.3,0.3,0.6,0.5,1,0.6C-5.8,6.8-5.3,6.9-4.5,7C-3.6,7-3.3,7-1,7 M-1,8.6
					c-2.3,0-2.6,0-3.6-0.1c-0.9,0-1.5-0.2-2.1-0.4c-0.6-0.2-1-0.5-1.5-1c-0.5-0.5-0.8-1-1-1.5C-9.4,5-9.5,4.4-9.6,3.5
					c0-0.9-0.1-1.2-0.1-3.5c0-2.3,0-2.6,0.1-3.5c0-0.9,0.2-1.5,0.4-2.1c0.2-0.6,0.5-1,1-1.5c0.5-0.5,1-0.8,1.5-1
					c0.5-0.2,1.2-0.4,2.1-0.4c0.9,0,1.2-0.1,3.6-0.1s2.6,0,3.6,0.1c0.9,0,1.5,0.2,2.1,0.4c0.6,0.2,1,0.5,1.5,1c0.5,0.5,0.8,1,1,1.5
					c0.2,0.5,0.4,1.2,0.4,2.1c0,0.9,0.1,1.2,0.1,3.5s0,2.6-0.1,3.5c0,0.9-0.2,1.5-0.4,2.1c-0.2,0.6-0.5,1-1,1.5
					c-0.5,0.5-1,0.8-1.5,1C4.1,8.3,3.5,8.5,2.5,8.5C1.6,8.6,1.3,8.6-1,8.6L-1,8.6L-1,8.6z"/>
			</g>
		</g>
		<g>
			<g>
				<path class="st1" d="M-1,4.4c-2.4,0-4.4-2-4.4-4.4s2-4.4,4.4-4.4s4.4,2,4.4,4.4S1.4,4.4-1,4.4L-1,4.4z M-1-2.9
					c-1.6,0-2.9,1.3-2.9,2.9c0,1.6,1.3,2.9,2.9,2.9c1.6,0,2.9-1.3,2.9-2.9C1.9-1.6,0.6-2.9-1-2.9L-1-2.9z"/>
			</g>
		</g>
		<g>
			<g>
				<path class="st1" d="M4.6,4.6c0-0.6-0.5-1-1-1s-1,0.5-1,1s0.5,1,1,1S4.6,5.1,4.6,4.6L4.6,4.6z"/>
			</g>
		</g>
	</g>
	<path class="st1" d="M-74.3,10v-3h-1.8c-0.7,0-1.1-0.1-1.3-0.4c-0.2-0.3-0.3-0.7-0.3-1.2V3.1h3.4l-0.4-3.4h-2.9V-9h-3.5v8.7h-2.9
		v3.4h2.9v2.5c0,1.4,0.4,2.5,1.2,3.3c0.8,0.8,1.9,1.2,3.2,1.2C-75.8,10.1-74.9,10.1-74.3,10z"/>
</symbol>
<g>
	<g>
		<g>
			<g>
				<path class="st17" d="M150.1,239.4c24,0,29.7-4.2,47.2-7.5c-7.3-30.2-7.3-56.5-5.5-77.4c0.9-10.2,4.7-23.1,4.7-23.1
					c0.5-21.2-0.4-34.3,8.9-47c-5.1-4.3-26.4-10.5-34.2-14.6c-1.8-0.9-9-0.3-21.1-0.3h-0.3c-12.1,0-19.3-0.6-21.1,0.3
					c-7.8,4-29.1,10.3-34.2,14.6c9.3,12.7,8.4,25.9,8.9,47c0,0,3.8,12.9,4.7,23.1c1.8,20.8,1.8,47.2-5.5,77.4
					c17.5,3.3,23.2,7.5,47.2,7.5H150.1z"/>
				<path class="st17" d="M103.5,130.8c-0.2,0.9-7.1,47.3-8.3,92.8c0,0.7-0.6,1.1-1.3,1.1H71.7c-0.7,0-1.3-0.6-1.3-1.4
					c0-67.2,15-132.3,24.1-138.9C105.4,97.1,103.4,129,103.5,130.8z"/>
				<path class="st17" d="M92.9,238.2H72.7c-0.6,0-1-0.4-1-1v-12.6h22.2v12.6C93.9,237.7,93.5,238.2,92.9,238.2z"/>
				<path class="st17" d="M196.5,130.8c0.2,0.9,7.1,47.3,8.3,92.8c0,0.7,0.6,1.1,1.3,1.1h22.2c0.7,0,1.3-0.6,1.3-1.4
					c0-67.2-15-132.3-24.1-138.9C194.6,97.1,196.6,129,196.5,130.8z"/>
				<path class="st17" d="M207.1,238.2h20.2c0.6,0,1-0.4,1-1v-12.6h-22.2v12.6C206.1,237.7,206.5,238.2,207.1,238.2z"/>
			</g>
			<path class="st17" d="M150.1,69.4c7.4,0,12.9-0.2,16.6-0.2c2.3,0,3.9,0.2,4.6,0.5c1,0.5,2.3,1.1,3.8,1.7
				c-0.2-0.4-0.5-0.9-0.7-1.3c-1.1-2-2-3.5-2.7-4.8c-0.9-1.5-1.6-2.6-2.4-3.6c-1.2-1.6-9.7-1.2-19.1-1.2h0c-9.5,0-18-0.4-19.1,1.2
				c-0.7,1-1.5,2.1-2.4,3.6c-0.7,1.3-1.6,2.8-2.7,4.8c-0.2,0.4-0.5,0.8-0.7,1.3c1.5-0.6,2.7-1.2,3.8-1.7c0.7-0.4,2.2-0.5,4.6-0.5
				C137.2,69.2,142.7,69.4,150.1,69.4L150.1,69.4z"/>
			<path class="st17" d="M154.3,94.4v144.9H146V94.4c1.3,0.1,2.7,0.2,4.1,0.2C151.5,94.7,152.9,94.6,154.3,94.4z"/>
			<path class="st17" d="M156.1,94.2c-1.9,0.3-3.9,0.5-6,0.5c-2.1,0-4.1-0.2-6-0.5c2.1-2.4,3.9-4.6,4.8-5.7h2.5
				C152.2,89.5,154.1,91.7,156.1,94.2z"/>
			<g>
				<circle cx="150" cy="103.9" r="1.6"/>
				<circle cx="150" cy="91.6" r="1.6"/>
				<circle cx="150" cy="124.7" r="1.6"/>
				<circle cx="150" cy="145.5" r="1.6"/>
				<circle cx="150" cy="166.3" r="1.6"/>
				<circle cx="150" cy="187.1" r="1.6"/>
				<circle cx="150" cy="207.9" r="1.6"/>
			</g>
			<g>
				<polygon class="st17" points="110,134.7 123,138.1 136,134.7 136,108.1 110,108.1 110,134.7 				"/>
				<polygon class="st17" points="110,116.6 123,120 136,116.6 136,108.1 110,108.1 110,116.6 				"/>
				<circle cx="123" cy="115.9" r="1.6"/>
			</g>
			<path class="st17" d="M150.9,87.9c0,0,4,4.8,7.7,9.2C173.5,78.8,175,71.5,175,71.5c-0.2-0.4-0.5-0.9-0.7-1.3
				c-1.1-2-2-3.5-2.7-4.8c-0.9-1.5-1.6-2.6-2.4-3.6c-0.4-0.5-1.4-0.8-2.9-0.9c2.7,1.2,2.2,4.5,0.3,8.3
				C162.8,76.9,153,86.9,150.9,87.9z"/>
			<g>
				<polygon class="st17" points="190,134.7 177.1,138.1 164.1,134.7 164.1,108.1 190,108.1 190,134.7 				"/>
				<polygon class="st17" points="190,116.6 177.1,120 164.1,116.6 164.1,108.1 190,108.1 190,116.6 				"/>
				<circle cx="177.1" cy="115.9" r="1.6"/>
			</g>
			<path class="st17" d="M149.4,87.9c0,0-4,4.8-7.7,9.2c-14.9-18.3-16.4-25.6-16.4-25.6c0.2-0.4,0.5-0.9,0.7-1.3
				c1.1-2,2-3.5,2.7-4.8c0.9-1.5,1.6-2.6,2.4-3.6c0.4-0.5,1.4-0.8,2.9-0.9c-2.7,1.2-2.2,4.5-0.3,8.3
				C137.5,76.9,147.3,86.9,149.4,87.9z"/>
			<path class="st17" d="M127.5,76.8L127.5,76.8L97.8,89.4c-0.9-1.9-1.9-3.6-3-5.1c4.4-3.7,21-8.9,30.4-12.8
				C125.2,71.5,125.6,73.2,127.5,76.8z"/>
			<path class="st17" d="M172.8,76.8L172.8,76.8l29.7,12.6c0.9-1.9,1.9-3.6,3-5.1c-4.4-3.7-21-8.9-30.4-12.8
				C175,71.5,174.7,73.2,172.8,76.8z"/>
		</g>
	</g>
</g>
</svg>
