<?xml version="1.0" standalone="no"?>
<!DOCTYPE svg PUBLIC "-//W3C//DTD SVG 20010904//EN"
 "http://www.w3.org/TR/2001/REC-SVG-20010904/DTD/svg10.dtd">
<svg version="1.0" xmlns="http://www.w3.org/2000/svg"
 width="1108.000000pt" height="685.000000pt" viewBox="0 0 1108.000000 685.000000"
 preserveAspectRatio="xMidYMid meet">
<metadata>
Created by potrace 1.15, written by Peter Selinger 2001-2017
</metadata>
<g transform="translate(0.000000,685.000000) scale(0.100000,-0.100000)"
fill="#000000" stroke="none">
<path d="M2380 5973 c-59 -9 -78 -26 -137 -116 -33 -51 -72 -113 -87 -139 -31
-53 -17 -47 -313 -149 -484 -167 -613 -224 -686 -302 -177 -187 -402 -921
-552 -1790 -114 -665 -185 -1431 -185 -2000 0 -165 1 -178 20 -194 19 -16 20
-30 20 -200 0 -170 1 -183 19 -193 13 -6 152 -10 383 -10 313 0 367 2 386 16
21 15 22 21 22 190 0 156 2 178 19 202 16 23 20 53 25 212 12 359 53 824 107
1205 33 234 90 567 96 561 10 -9 -30 -860 -73 -1581 -14 -236 -26 -472 -27
-524 l-2 -94 160 -33 c88 -18 239 -50 335 -72 347 -79 518 -100 875 -109 444
-10 701 16 1180 122 160 35 319 69 355 76 80 15 90 22 84 62 -5 38 -58 941
-79 1361 -16 320 -28 767 -20 751 8 -17 53 -273 79 -455 56 -383 95 -815 116
-1255 9 -203 12 -221 30 -234 19 -13 20 -25 20 -197 0 -171 1 -184 19 -194 13
-6 152 -10 385 -10 353 0 367 1 386 20 18 18 20 33 20 190 0 156 2 173 20 198
20 27 20 34 10 352 -13 442 -29 673 -76 1090 -129 1163 -428 2307 -663 2540
-83 82 -169 120 -626 280 -154 54 -293 103 -310 109 -22 8 -41 31 -72 84 -24
40 -65 105 -92 144 -47 67 -53 72 -101 82 -48 10 -1009 14 -1070 4z m1052 -53
c24 -30 21 -87 -8 -146 l-19 -39 -497 -3 -497 -2 -15 28 c-8 16 -20 50 -27 75
-10 40 -9 51 5 72 10 15 27 30 39 35 12 5 238 8 510 7 l489 -2 20 -25z m-1092
-19 c-20 -69 24 -173 134 -322 71 -97 240 -276 328 -350 l58 -48 -106 -115
c-58 -64 -107 -116 -108 -116 -6 0 -184 216 -243 295 -86 114 -165 237 -209
327 l-38 77 64 105 c57 94 115 176 125 176 2 0 0 -13 -5 -29z m1242 -130 c38
-58 68 -114 68 -124 0 -28 -63 -145 -142 -263 -70 -106 -285 -381 -325 -417
-19 -17 -22 -14 -119 93 -54 61 -100 114 -102 118 -1 4 32 37 74 72 120 102
275 279 359 408 62 97 89 173 81 232 l-6 45 23 -29 c12 -15 52 -76 89 -135z
m-202 -76 c0 -23 -138 -193 -245 -304 -115 -118 -230 -218 -237 -204 -1 5 -20
21 -40 36 -104 78 -290 274 -379 401 -27 38 -49 72 -49 75 0 3 214 6 475 6
310 0 475 -3 475 -10z m-1218 -126 l27 -60 -27 -10 c-15 -5 -210 -82 -433
-169 -223 -88 -410 -160 -416 -160 -6 0 -20 15 -31 33 -11 19 -27 46 -37 60
l-17 27 103 49 c57 26 163 69 234 95 267 96 550 195 560 195 6 0 22 -27 37
-60z m1827 -43 c386 -135 591 -219 591 -242 0 -10 -74 -114 -81 -114 -13 0
-853 331 -862 339 -4 4 4 33 19 65 19 43 31 56 43 53 9 -3 139 -48 290 -101z
m-1736 -119 c93 -148 370 -496 394 -497 7 0 27 18 45 40 22 28 39 40 53 38
l20 -3 3 -2047 2 -2048 -87 0 c-203 0 -455 35 -773 107 -113 25 -263 58 -335
73 l-130 26 2 55 c2 30 14 245 28 479 75 1288 89 1774 65 2295 -26 563 -85
907 -198 1166 l-20 46 431 171 c238 93 437 171 443 171 6 1 31 -32 57 -72z
m1798 -97 c238 -94 434 -172 436 -173 2 -2 -7 -28 -21 -58 -64 -146 -120 -378
-150 -619 -46 -372 -64 -917 -48 -1404 16 -454 69 -1477 98 -1877 l7 -86 -49
-7 c-27 -3 -139 -27 -249 -51 -456 -104 -629 -132 -877 -142 l-148 -6 0 2051
c0 2003 0 2052 19 2052 10 0 35 -18 55 -40 20 -22 40 -40 45 -40 22 0 312 369
394 502 23 37 45 68 49 68 4 0 202 -77 439 -170z m-2756 -195 c138 -283 199
-661 224 -1390 5 -137 7 -252 6 -255 -9 -14 -69 -324 -100 -510 -74 -449 -122
-934 -144 -1446 -4 -105 -11 -196 -15 -202 -10 -17 -787 -17 -804 0 -29 29 -2
679 49 1208 112 1167 401 2364 651 2698 l40 53 25 -33 c13 -18 44 -73 68 -123z
m3355 108 c42 -50 129 -229 183 -378 293 -795 526 -2278 527 -3346 0 -161 -2
-188 -16 -193 -23 -9 -777 -7 -790 2 -7 4 -16 93 -23 247 -22 448 -54 799
-112 1205 -31 219 -88 539 -114 641 -18 67 -19 180 -5 489 23 506 69 824 157
1079 40 117 131 291 152 291 5 0 24 -17 41 -37z m-1715 -71 c6 -4 35 -34 65
-65 45 -47 52 -59 40 -67 -18 -12 -250 -13 -267 -2 -9 6 6 28 48 75 58 65 87
80 114 59z m83 -2219 l-3 -2048 -110 0 -110 0 -3 2048 -2 2047 115 0 115 0 -2
-2047z m-1780 -1813 c1 -85 0 -165 -3 -177 l-5 -23 -370 0 -370 0 0 180 0 180
373 -2 372 -3 3 -155z m4082 -20 l0 -180 -370 0 -370 0 0 180 0 180 370 0 370
0 0 -180z"/>
<path d="M1750 4230 l0 -389 38 -10 c20 -5 107 -28 192 -50 l156 -41 154 41
c85 22 172 44 193 50 l37 10 0 389 0 390 -385 0 -385 0 0 -390z m740 261 c0
-96 -2 -110 -17 -115 -10 -3 -90 -24 -178 -47 l-159 -41 -141 37 c-77 20 -157
41 -177 46 l-38 10 0 109 0 110 355 0 355 0 0 -109z m-519 -191 l166 -42 162
41 c88 23 168 44 176 47 13 5 15 -26 15 -238 l0 -245 -176 -45 -176 -46 -179
45 -179 46 0 245 c0 197 3 243 13 239 7 -3 88 -24 178 -47z"/>
<path d="M3290 4230 l0 -389 38 -10 c20 -5 107 -28 193 -50 l155 -40 175 45
c96 24 182 47 192 50 16 5 17 33 17 395 l0 389 -385 0 -385 0 0 -390z m740
261 l0 -110 -52 -15 c-29 -8 -110 -29 -179 -46 l-125 -32 -140 37 c-76 20
-156 41 -176 46 l-38 10 0 103 c0 56 3 106 7 109 3 4 163 7 355 7 l348 0 0
-109z m-519 -191 l167 -43 176 46 176 45 0 -242 0 -243 -175 -45 -175 -46
-180 46 -180 45 0 245 c0 191 3 243 13 240 6 -3 87 -24 178 -48z"/>
<path d="M7724 5969 c-55 -3 -110 -11 -122 -18 -20 -11 -121 -155 -173 -248
-13 -23 -31 -44 -39 -47 -72 -22 -590 -207 -680 -243 -240 -95 -293 -140 -384
-326 -332 -683 -626 -2363 -626 -3584 0 -199 1 -213 20 -231 18 -16 20 -34 22
-203 l3 -184 390 -3 c358 -2 391 -1 403 15 8 12 12 67 12 191 0 152 2 176 17
187 14 11 18 42 24 206 21 518 71 1015 150 1484 54 322 58 338 53 175 -15
-433 -48 -1096 -96 -1872 -6 -109 -9 -200 -6 -203 3 -3 79 -21 169 -40 90 -18
232 -50 316 -69 368 -86 583 -109 1008 -109 425 0 640 23 1008 109 84 19 226
51 316 69 90 19 166 37 169 40 3 3 0 94 -6 203 -48 775 -81 1436 -96 1872 -5
160 0 146 49 -145 80 -468 133 -996 154 -1514 6 -164 10 -195 24 -206 15 -11
17 -35 17 -187 0 -124 4 -179 13 -191 11 -16 44 -17 402 -15 l390 3 3 184 c2
169 4 187 22 203 19 18 20 32 20 226 0 789 -129 1850 -325 2666 -103 433 -238
828 -344 1005 -83 140 -159 183 -578 331 -126 44 -280 99 -343 121 l-115 41
-68 112 c-92 149 -114 175 -162 187 -46 11 -858 18 -1011 8z m985 -40 c46 -10
53 -15 99 -82 27 -40 61 -93 77 -120 l27 -47 -27 10 c-14 5 -35 15 -46 21 -14
7 -221 11 -654 11 -433 0 -640 -4 -654 -11 -11 -6 -32 -16 -46 -21 l-27 -10
27 47 c16 27 50 80 78 120 43 64 54 73 90 82 60 13 994 14 1056 0z m171 -269
c41 -18 220 -83 396 -145 332 -117 530 -195 564 -223 19 -17 19 -18 -21 -80
-48 -76 -99 -192 -134 -307 l-26 -85 -1474 0 -1474 0 -26 85 c-35 114 -85 231
-134 306 -22 35 -37 67 -35 71 17 27 205 103 579 233 154 53 318 113 365 133
47 19 101 38 120 41 19 4 303 6 630 5 l595 -1 75 -33z m-2321 -521 c131 -246
202 -620 231 -1224 17 -364 15 -434 -24 -623 -72 -346 -126 -731 -165 -1158
-18 -195 -26 -314 -47 -722 l-6 -112 -406 2 -407 3 1 265 c6 1016 212 2356
488 3165 86 253 161 414 228 491 l30 34 19 -24 c10 -13 36 -57 58 -97z m3413
9 c187 -314 407 -1144 533 -2010 84 -584 143 -1338 133 -1713 l-3 -120 -407
-3 c-323 -2 -408 0 -408 10 0 7 -5 108 -10 223 -30 627 -96 1205 -196 1704
-50 252 -52 309 -34 686 32 654 115 1045 274 1287 l30 47 24 -22 c13 -12 42
-52 64 -89z m-326 -384 c-4 -15 -18 -90 -31 -168 -64 -381 -90 -1063 -65
-1671 22 -513 79 -1570 96 -1762 6 -70 6 -72 -17 -78 -13 -3 -78 -16 -144 -30
-66 -13 -210 -45 -319 -69 -372 -85 -569 -106 -981 -106 -433 0 -592 19 -1068
125 -161 35 -311 67 -333 71 -23 3 -46 9 -52 13 -9 5 -5 114 13 407 54 888 85
1574 85 1908 0 536 -45 1120 -106 1360 l-6 26 1467 0 1467 0 -6 -26z m-3136
-3674 l0 -180 -370 0 -370 0 0 180 0 180 370 0 370 0 0 -180z m4090 0 l0 -180
-370 0 -370 0 0 180 0 180 370 0 370 0 0 -180z"/>
</g>
</svg>
