<?xml version="1.0" encoding="utf-8"?>
<!-- Generator: Adobe Illustrator 22.1.0, SVG Export Plug-In . SVG Version: 6.00 Build 0)  -->
<svg version="1.1" id="Design" xmlns="http://www.w3.org/2000/svg" xmlns:xlink="http://www.w3.org/1999/xlink" x="0px" y="0px"
	 viewBox="0 0 300 300" style="enable-background:new 0 0 300 300;" xml:space="preserve">
<style type="text/css">
	
		.st0{fill:none;stroke:#FFB71B;stroke-width:0.9076;stroke-linecap:round;stroke-linejoin:round;stroke-miterlimit:10;stroke-dasharray:2.7229,1.3615;}
	.st1{fill:#FFFFFF;}
	.st2{fill:none;stroke:#000000;stroke-width:3.6232;stroke-linecap:round;stroke-miterlimit:10;stroke-dasharray:10.8695,14.4927;}
</style>
<g>
	<path class="st0" d="M128.6,77"/>
	<g>
		<g>
			<path class="st1" d="M150,226.5c-0.2,0-0.3,0-0.5-0.1l-70.3-18.5c-0.8-0.2-1.4-1-1.4-1.8V75.4c0-1,0.8-1.9,1.9-1.9h140.5
				c1,0,1.9,0.8,1.9,1.9v130.7c0,0.9-0.6,1.6-1.4,1.8l-70.3,18.5C150.3,226.5,150.2,226.5,150,226.5z"/>
			<g>
				<path d="M220.3,75.4v130.7L150,224.6l-70.3-18.5V75.4H220.3 M220.3,71.6H79.7c-2.1,0-3.8,1.7-3.8,3.8v130.7
					c0,1.7,1.2,3.2,2.8,3.6l70.3,18.5c0.3,0.1,0.6,0.1,1,0.1s0.6,0,1-0.1l70.3-18.5c1.7-0.4,2.8-1.9,2.8-3.6V75.4
					C224,73.3,222.3,71.6,220.3,71.6L220.3,71.6z"/>
			</g>
		</g>
		<line class="st2" x1="81.5" y1="91.6" x2="218.3" y2="91.6"/>
	</g>
</g>
</svg>
