<?xml version="1.0" encoding="utf-8"?>
<!-- Generator: Adobe Illustrator 22.1.0, SVG Export Plug-In . SVG Version: 6.00 Build 0)  -->
<svg version="1.1" id="Design" xmlns="http://www.w3.org/2000/svg" xmlns:xlink="http://www.w3.org/1999/xlink" x="0px" y="0px"
	 viewBox="0 0 300 300" style="enable-background:new 0 0 300 300;" xml:space="preserve">
<style type="text/css">
	.st0{fill:#FFFFFF;}
	.st1{fill:none;stroke:#000000;stroke-width:3.6232;stroke-linecap:round;stroke-miterlimit:10;stroke-dasharray:10.8695,14.4927;}
</style>
<g>
	<g>
		<path class="st0" d="M79.7,217.2c-1,0-1.9-0.8-1.9-1.9V84.6c0-1,0.8-1.9,1.9-1.9h140.5c1,0,1.9,0.8,1.9,1.9v130.7
			c0,1-0.8,1.9-1.9,1.9H79.7z"/>
		<path d="M220.3,84.6v130.7H79.7V84.6H220.3 M220.3,80.9H79.7c-2.1,0-3.8,1.7-3.8,3.8v130.7c0,2.1,1.7,3.8,3.8,3.8h140.5
			c2.1,0,3.8-1.7,3.8-3.8V84.6C224,82.6,222.3,80.9,220.3,80.9L220.3,80.9z"/>
	</g>
	<line class="st1" x1="81.5" y1="100.9" x2="218.3" y2="100.9"/>
</g>
</svg>
